<?xml version="1.0" encoding="utf-8"?>
<!-- Generator: Adobe Illustrator 23.0.2, SVG Export Plug-In . SVG Version: 6.00 Build 0)  -->
<svg version="1.1" id="Layer_1" xmlns="http://www.w3.org/2000/svg" xmlns:xlink="http://www.w3.org/1999/xlink" x="0px" y="0px"
	 viewBox="0 0 226.2 77.8" style="enable-background:new 0 0 226.2 77.8;" xml:space="preserve">
<style type="text/css">
	.st0{fill:#006341;}
</style>
<g>
	<path class="st0" d="M38.1,3.3C19.4,3.3,4.2,18.5,4.2,37.2c0,18.7,15.2,33.9,33.9,33.9c1.9,0,3.8-0.2,5.7-0.5V19H36
		c-2.6,7-9.3,6.9-9.3,6.9V33h6v27.3c-10.5-2.4-18.4-11.9-18.4-23.1c0-13.1,10.6-23.7,23.7-23.7c13.1,0,23.7,10.6,23.7,23.7
		c0,9.9-6,18.3-14.6,21.9v10.7C61.5,65.9,72,52.8,72,37.2C72,18.5,56.8,3.3,38.1,3.3z"/>
	<g>
		<path class="st0" d="M126.8,27.1c-4.1,0-7.6,1.8-9.8,4.7v-4h-7.2h-2.4h-9V27c0-5.6,0.7-6.4,6.7-6.4v-9.1h-0.8
			c-11.9,0-15.7,3.8-15.7,15.5v0.9h-6.1v8.8h6.1v26.9h9.8V36.6h9v26.9h9.8V44c0-6,3.1-8.6,6.8-8.6c4.3,0,6.6,2.8,6.6,7.6v20.5h9.9
			V41.7C140.3,32.5,135.2,27.1,126.8,27.1z"/>
		<path class="st0" d="M164.3,27.1c-4.8,0-8.4,1.9-10.7,4.6V11.4h-9.8v52h9.8v-3.8c2.3,2.8,6.1,4.6,10.8,4.6c7.6,0,17.1-6,17.1-18.5
			C181.6,33,172.4,27.1,164.3,27.1z M162.5,55.2c-5.9,0-10-5.4-9-11.5c0.8-4.5,4.9-7.9,9.4-7.7c5.2,0.2,9.1,4.2,9.1,9.5
			C172,51,167.9,55.2,162.5,55.2z"/>
		<path class="st0" d="M202.5,27.1c-10.9-0.4-19.7,8.6-19.1,19.5c0.5,9.4,8.3,17.1,17.7,17.5c10.9,0.4,19.7-8.6,19.1-19.5
			C219.7,35.2,211.9,27.5,202.5,27.1z M201.7,54.9c-5.3,0-9.3-4.6-8.9-10c0.3-4.6,4.1-8.5,8.8-8.5c5-0.1,9.1,4.2,9.1,9.3
			C210.7,50.7,206.7,54.9,201.7,54.9z"/>
	</g>
</g>
</svg>
